<svg id="Capa_1" data-name="Capa 1" xmlns="http://www.w3.org/2000/svg" viewBox="0 0 268.51 260.25"><defs><style>.cls-1{fill:none;}.cls-2{fill:#fff;stroke:#000;stroke-linecap:round;stroke-linejoin:round;stroke-width:20px;}</style></defs><title>Logo</title><path class="cls-1" d="M100.2,163.94a107.17,107.17,0,0,1-36.75-39.43c-1.59-2.86-3-5.79-4.38-8.75a100.51,100.51,0,0,0-.87,62.46c11.42,0,23.71-5.46,39.41-13Z" transform="translate(-21.74 -8.46)"/><path class="cls-1" d="M243.09,168C236,189.31,218.36,209.4,192.16,226a9.52,9.52,0,0,1-1.13.62c-17.79,8.3-39.37,12.64-61.24,12.64A163.09,163.09,0,0,1,109,238a100.3,100.3,0,0,0,145.36-89.65,102,102,0,0,0-.87-13.27L243.14,167.8C243.12,167.86,243.11,167.91,243.09,168Z" transform="translate(-21.74 -8.46)"/><path class="cls-1" d="M167.06,48.82A100.79,100.79,0,0,0,154,48a99.75,99.75,0,0,0-34.12,6c13,3,26.2,8.68,38.11,19.57A60.81,60.81,0,0,1,167.06,48.82Z" transform="translate(-21.74 -8.46)"/><path class="cls-1" d="M199.48,34c-.39.84-.78,1.64-1.18,2.44q3.54,1.41,7,3C203.34,37.49,201.4,35.65,199.48,34Z" transform="translate(-21.74 -8.46)"/><path class="cls-1" d="M182,208.81c21.93-14.05,36.48-30.32,42.1-47.1l12.9-41c.1-.31.21-.6.33-.9,3.22-7.61,2.59-17.51-.5-28a100.86,100.86,0,0,0-49.09-37.95c-7.71,11.25-12.73,19.13-10,47.42a10,10,0,0,1-18.66,5.89C141.3,75.62,115.16,71.73,91,70.29a100.93,100.93,0,0,0-19.51,21c7.07,27.53,26.76,54.13,56.09,63.42a10,10,0,0,1,.34,19,224.61,224.61,0,0,0-21.59,9.51c-12.46,6-25.77,12.41-39.69,14.39Q69.1,202,72,206.1a112.83,112.83,0,0,0,30.61,10.59C129.49,222,159.83,219,182,208.81Z" transform="translate(-21.74 -8.46)"/><path class="cls-1" d="M264.92,196.22l-.53-.06c-.6,1.38-1.22,2.75-1.87,4.1C263.36,198.92,264.16,197.56,264.92,196.22Z" transform="translate(-21.74 -8.46)"/><path d="M288.51,181.54a10,10,0,0,0-8.06-4.35q-4.59-.09-9.47-.46a120.27,120.27,0,0,0-15.85-93.55,135.92,135.92,0,0,0-10.06-23.07c-12-21.93-29.8-41.71-45.37-50.38a10,10,0,0,0-14.39,5.69,84.92,84.92,0,0,1-6.44,15.2A120.33,120.33,0,0,0,84.8,50c-8.62-.43-16.73-.88-22.62-2.56a10,10,0,0,0-12.66,8.19,101,101,0,0,0,.78,31.81,120.15,120.15,0,0,0-14.65,82.64,10,10,0,0,0-12.93,13.51c7.5,15.67,19.79,28.57,35.88,38A120.18,120.18,0,0,0,243.32,229a10,10,0,0,0,6.14,7.54,10.33,10.33,0,0,0,3.21.7,10,10,0,0,0,6.87-2.3c13.74-11.43,25.24-31,30.11-44.26A10,10,0,0,0,288.51,181.54ZM154,48a100.68,100.68,0,0,1,13.07.85A61,61,0,0,0,158,73.59c-11.9-10.9-25.12-16.52-38.1-19.58A99.93,99.93,0,0,1,154,48ZM84.39,70c2.19.11,4.39.22,6.62.35,24.19,1.44,50.33,5.34,68.12,36.83a10,10,0,0,0,18.66-5.88c-2.75-28.29,2.26-36.18,10-47.42l.42-.61a130.15,130.15,0,0,0,10.16-16.78c.39-.79.79-1.59,1.18-2.44,1.92,1.66,3.85,3.5,5.78,5.47,13.28,13.59,26.18,33.92,31.56,52.3,3.09,10.55,3.71,20.45.5,28.06a7.34,7.34,0,0,0-.33.89l-12.91,41c-5.61,16.77-20.16,33-42.09,47.09-22.17,10.15-52.51,13.18-79.38,7.89A113.13,113.13,0,0,1,72,206.16a83,83,0,0,1-12.29-7.9,61.17,61.17,0,0,0,6.9-.6c13.92-2,27.23-8.39,39.69-14.39a222.17,222.17,0,0,1,21.58-9.52,10,10,0,0,0-.33-18.95c-29.34-9.29-49-35.9-56.09-63.43a89.73,89.73,0,0,1-2.92-22.49C73.61,69.45,78.92,69.72,84.39,70ZM58.23,178.28a100.39,100.39,0,0,1,.88-62.45q2,4.44,4.37,8.74A107.12,107.12,0,0,0,100.24,164l-2.59,1.25C82,172.82,69.65,178.32,58.23,178.28ZM154,248.71A99.73,99.73,0,0,1,109,238a164.77,164.77,0,0,0,20.82,1.33c21.88,0,43.46-4.33,61.25-12.63a9.58,9.58,0,0,0,1.13-.63c15.42-9.79,27.85-20.77,36.93-32.51a39.75,39.75,0,0,1,8.21,10.63A100.3,100.3,0,0,1,154,248.71Zm97-74.48c-3.08-.52-6.25-1.1-9.5-1.76.6-1.47,1.15-3,1.64-4.44l.06-.16,10.3-32.76a100.52,100.52,0,0,1-2.5,39.12Zm11.58,26.1c-1.06,1.71-2.18,3.41-3.34,5.08a59.34,59.34,0,0,0-4.06-10.3c3.17.45,6.25.81,9.27,1.12l.53.05C264.2,197.63,263.39,199,262.56,200.33Z" transform="translate(-21.74 -8.46)"/><path class="cls-2" d="M158.67,121.33" transform="translate(-21.74 -8.46)"/></svg>